<svg xmlns="http://www.w3.org/2000/svg" xmlns:xlink="http://www.w3.org/1999/xlink" width="218.642" height="77.415" viewBox="0 0 218.642 77.415">
  <defs>
    <linearGradient id="linear-gradient" x1="0.5" x2="0.5" y2="1" gradientUnits="objectBoundingBox">
      <stop offset="0" stop-color="#098388"/>
      <stop offset="1" stop-color="#196a6d"/>
    </linearGradient>
  </defs>
  <g id="logo" transform="translate(-2996.577 -1920.794)">
    <g id="Group_29336" data-name="Group 29336" transform="translate(2996.577 1920.794)">
      <path id="Path_25382" data-name="Path 25382" d="M315.538,188.226l2.95,2.949a4.825,4.825,0,0,0,6.411.379l4.793-3.81a4.687,4.687,0,0,0,1.761-3.031,4.247,4.247,0,0,0,.061-.728V181.17a36.2,36.2,0,0,1,22.479,0v2.776a3.814,3.814,0,0,0,.072.768,4.763,4.763,0,0,0,1.751,3l4.823,3.84a4.784,4.784,0,0,0,6.38-.379l2.95-2.949a4.789,4.789,0,0,0-.123-6.944,40.759,40.759,0,0,0-13.364-7.865,39.819,39.819,0,0,0-6.011-1.639,41.668,41.668,0,0,0-7.722-.727,41.157,41.157,0,0,0-7.681.727,38.008,38.008,0,0,0-5.581,1.485c-.5.164-.993.349-1.485.533a40.644,40.644,0,0,0-12.34,7.486A4.789,4.789,0,0,0,315.538,188.226Z" transform="translate(-314.109 -171.052)" fill="url(#linear-gradient)"/>
      <path id="Path_25383" data-name="Path 25383" d="M344.554,219.158a26.915,26.915,0,1,0,26.912,26.912A26.912,26.912,0,0,0,344.554,219.158Zm0,44.175a17.261,17.261,0,1,1,17.258-17.263A17.26,17.26,0,0,1,344.554,263.333Z" transform="translate(-315.91 -195.572)" fill="#2b2a2a"/>
    </g>
    <path id="Path_25358" data-name="Path 25358" d="M484.349,215.067a14.906,14.906,0,1,1,14.9,14.707A14.533,14.533,0,0,1,484.349,215.067Zm23.54,0a8.643,8.643,0,1,0-8.635,9.029A8.7,8.7,0,0,0,507.889,215.067Z" transform="translate(2589.517 1720.435)" fill="#2b2a2a"/>
    <path id="Path_25359" data-name="Path 25359" d="M532.285,200.976h18.1v5.481H538.554v6.151h10.172v5.2H538.554v11.711h-6.269Z" transform="translate(2575.333 1720.253)" fill="#2b2a2a"/>
    <path id="Path_25360" data-name="Path 25360" d="M563.98,200.976h18.1v5.481H570.25v6.151h10.172v5.2H570.25v11.711h-6.27Z" transform="translate(2565.955 1720.253)" fill="#2b2a2a"/>
    <path id="Path_25361" data-name="Path 25361" d="M595.676,200.976h6.269v28.547h-6.269Z" transform="translate(2556.576 1720.253)" fill="#2b2a2a"/>
    <path id="Path_25362" data-name="Path 25362" d="M625.771,200.359a18.3,18.3,0,0,1,7.925,1.775v6.348A14.5,14.5,0,0,0,625.81,206c-5.52,0-9.305,3.864-9.305,9.029,0,5.087,3.667,9.109,9.542,9.109a14.338,14.338,0,0,0,8.084-2.642v6.387a18.3,18.3,0,0,1-8.359,1.893c-9.187,0-15.536-6.349-15.536-14.668C610.235,206.826,616.584,200.359,625.771,200.359Z" transform="translate(2552.268 1720.435)" fill="#2b2a2a"/>
    <path id="Path_25363" data-name="Path 25363" d="M650.107,200.976h17.625v5.481H656.376v5.6h9.779v5.2h-9.779v6.781h11.79v5.481H650.107Z" transform="translate(2540.47 1720.253)" fill="#2b2a2a"/>
    <path id="Path_25370" data-name="Path 25370" d="M484.349,215.067a14.906,14.906,0,1,1,14.9,14.707A14.533,14.533,0,0,1,484.349,215.067Zm23.54,0a8.643,8.643,0,1,0-8.635,9.029A8.7,8.7,0,0,0,507.889,215.067Z" transform="translate(2589.517 1720.435)" fill="#2b2a2a"/>
    <path id="Path_25371" data-name="Path 25371" d="M532.285,200.976h18.1v5.481H538.554v6.151h10.172v5.2H538.554v11.711h-6.269Z" transform="translate(2575.333 1720.253)" fill="#2b2a2a"/>
    <path id="Path_25372" data-name="Path 25372" d="M563.98,200.976h18.1v5.481H570.25v6.151h10.172v5.2H570.25v11.711h-6.27Z" transform="translate(2565.955 1720.253)" fill="#2b2a2a"/>
    <path id="Path_25373" data-name="Path 25373" d="M595.676,200.976h6.269v28.547h-6.269Z" transform="translate(2556.576 1720.253)" fill="#2b2a2a"/>
    <path id="Path_25374" data-name="Path 25374" d="M625.771,200.359a18.3,18.3,0,0,1,7.925,1.775v6.348A14.5,14.5,0,0,0,625.81,206c-5.52,0-9.305,3.864-9.305,9.029,0,5.087,3.667,9.109,9.542,9.109a14.338,14.338,0,0,0,8.084-2.642v6.387a18.3,18.3,0,0,1-8.359,1.893c-9.187,0-15.536-6.349-15.536-14.668C610.235,206.826,616.584,200.359,625.771,200.359Z" transform="translate(2552.268 1720.435)" fill="#2b2a2a"/>
    <path id="Path_25375" data-name="Path 25375" d="M650.107,200.976h17.625v5.481H656.376v5.6h9.779v5.2h-9.779v6.781h11.79v5.481H650.107Z" transform="translate(2540.47 1720.253)" fill="#2b2a2a"/>
    <path id="Path_25376" data-name="Path 25376" d="M500,260.359a16.971,16.971,0,0,1,7.649,1.814v2.681A13.97,13.97,0,0,0,500,262.607a12.054,12.054,0,0,0-12.459,12.46c0,6.978,5.007,12.459,12.617,12.459a13.868,13.868,0,0,0,8-2.483v2.681a16.03,16.03,0,0,1-8.122,2.05c-8.794,0-14.9-6.388-14.9-14.668C485.134,266.984,491.008,260.359,500,260.359Z" transform="translate(2588.732 1708.435)" fill="#2b2a2a"/>
    <path id="Path_25377" data-name="Path 25377" d="M533.233,260.976h2.288l11.947,28.547h-2.6l-3.509-8.517h-14l-3.509,8.517h-2.484Zm4.338,10.764c-1.065-2.6-2.129-5.245-3.154-7.847h-.079c-.986,2.483-1.971,4.929-3.154,7.807l-2.918,7.1h12.184Z" transform="translate(2578.011 1708.252)" fill="#2b2a2a"/>
    <path id="Path_25378" data-name="Path 25378" d="M564.093,260.976H566.5v26.339h14.155v2.208h-16.56Z" transform="translate(2565.368 1708.252)" fill="#2b2a2a"/>
    <path id="Path_25379" data-name="Path 25379" d="M594.78,260.976h2.405v26.339h14.155v2.208H594.78Z" transform="translate(2556.288 1708.252)" fill="#2b2a2a"/>
    <path id="Path_25380" data-name="Path 25380" d="M625.467,260.976h15.811v2.207H627.872v10.41h11.868V275.8H627.872v11.514h13.761v2.208H625.467Z" transform="translate(2547.208 1708.252)" fill="#2b2a2a"/>
    <path id="Path_25381" data-name="Path 25381" d="M656.379,260.976h7.649c3.312,0,5.876.394,7.886,1.7a7.088,7.088,0,0,1,3.312,6.151,7.267,7.267,0,0,1-3,6.033,10.314,10.314,0,0,1-4.613,1.7l9.541,12.972H674.24l-9.305-12.775h-6.15v12.775h-2.405Zm8.4,13.722c2.958,0,4.85-.513,6.23-1.657a5.481,5.481,0,0,0-.512-8.556c-1.538-1.025-3.431-1.3-6.625-1.3h-5.086V274.7Z" transform="translate(2538.062 1708.252)" fill="#2b2a2a"/>
  </g>
</svg>
