<svg id="Layer_1" data-name="Layer 1" xmlns="http://www.w3.org/2000/svg" viewBox="0 0 328.82 153.07"><defs><style>.cls-1{fill:#fc7700;}.cls-2{fill:#fffcfa;}.cls-3{fill:#fff3f3;}.cls-4{fill:#3a3737;}.cls-5{fill:#b18d6d;}.cls-6{fill:#8e8c8a;}</style></defs><path class="cls-1" d="M78.58,73V62.84a1.13,1.13,0,0,1,1.13-1.14h1.54a1.14,1.14,0,0,1,1.14,1.14V73h-1V78.5H78.58v-.87h1V73Z"/><path class="cls-2" d="M81.62,78.76h-3.3V77.37h1V73.21h-1V62.84a1.39,1.39,0,0,1,.41-1,1.38,1.38,0,0,1,1-.4h1.54a1.42,1.42,0,0,1,1,.4,1.38,1.38,0,0,1,.4,1V73.21h-1Zm-2.78-.52h2.27V72.7h1V62.84a.84.84,0,0,0-.26-.62.85.85,0,0,0-.62-.26H79.71a.89.89,0,0,0-.87.88V72.7h1v5.19h-1Z"/><path class="cls-1" d="M54.66,97.39V96.6c0-1.19-.7-2.15-1.56-2.15H51c-.86,0-1.56,1-1.56,2.15v.79c0,1.19.7,2.16,1.56,2.16H53.1C54,99.55,54.66,98.58,54.66,97.39Z"/><path class="cls-1" d="M74.46,97.41v-.8c0-1.19-.7-2.15-1.56-2.15H70.77c-.86,0-1.56,1-1.56,2.15v.8c0,1.19.7,2.15,1.56,2.15H72.9C73.76,99.56,74.46,98.6,74.46,97.41Z"/><path class="cls-2" d="M53.32,99.9H50.76c-.89,0-1.61-1-1.61-2.21V96.3c0-1.22.72-2.21,1.61-2.21h2.56c.88,0,1.6,1,1.6,2.21v1.39C54.92,98.91,54.2,99.9,53.32,99.9Zm-2.56-5.1c-.6,0-1.09.67-1.09,1.5v1.39c0,.83.49,1.5,1.09,1.5h2.56c.6,0,1.09-.67,1.09-1.5V96.3c0-.83-.49-1.5-1.09-1.5Z"/><path class="cls-2" d="M73.11,99.92H70.56c-.89,0-1.61-1-1.61-2.21V96.32c0-1.22.72-2.22,1.61-2.22h2.55c.89,0,1.61,1,1.61,2.22v1.39C74.72,98.93,74,99.92,73.11,99.92Zm-2.55-5.1c-.6,0-1.09.67-1.09,1.5v1.39c0,.82.49,1.5,1.09,1.5h2.55c.6,0,1.09-.68,1.09-1.5V96.32c0-.83-.49-1.5-1.09-1.5Z"/><path class="cls-1" d="M70.42,55.62H54.23a8.17,8.17,0,0,0-8.16,8.17V88.41a8.17,8.17,0,0,0,8.16,8.16H70.42a8.16,8.16,0,0,0,8.16-8.16V63.79A8.16,8.16,0,0,0,70.42,55.62Z"/><path class="cls-2" d="M70.42,96.83H54.23a8.43,8.43,0,0,1-8.42-8.42V63.79a8.43,8.43,0,0,1,8.42-8.42H70.42a8.43,8.43,0,0,1,8.42,8.42V88.41A8.43,8.43,0,0,1,70.42,96.83ZM54.23,55.88a7.92,7.92,0,0,0-7.9,7.91V88.41a7.92,7.92,0,0,0,7.9,7.9H70.42a7.91,7.91,0,0,0,7.9-7.9V63.79a7.91,7.91,0,0,0-7.9-7.91Z"/><path class="cls-3" d="M56.81,89V87.07a.54.54,0,0,0-.54-.54H49.5a.54.54,0,0,0-.54.54V89a.55.55,0,0,0,.54.55h6.77A.55.55,0,0,0,56.81,89Z"/><path class="cls-4" d="M68.35,59.92V58.65a.61.61,0,0,0-.61-.61h-11a.61.61,0,0,0-.61.61v1.27a.62.62,0,0,0,.61.61h11A.61.61,0,0,0,68.35,59.92Z"/><path class="cls-3" d="M75.15,89V87.06a.54.54,0,0,0-.54-.54H67.84a.54.54,0,0,0-.54.54V89a.55.55,0,0,0,.54.55h6.77A.55.55,0,0,0,75.15,89Z"/><path class="cls-1" d="M46.07,73V62.84a1.16,1.16,0,0,0-.33-.81,1.14,1.14,0,0,0-.8-.33H43.41a1.14,1.14,0,0,0-.8.33,1.16,1.16,0,0,0-.33.81V73h1V78.5h2.76v-.87H45V73Z"/><path class="cls-2" d="M46.32,78.76H43V73.21H42V62.84a1.39,1.39,0,0,1,.41-1,1.38,1.38,0,0,1,1-.4h1.53a1.38,1.38,0,0,1,1,.4,1.35,1.35,0,0,1,.41,1V73.21h-1v4.16h1Zm-2.76-.52H45.8v-.35h-1V72.7h1V62.84a.87.87,0,0,0-.25-.62.85.85,0,0,0-.62-.26H43.41a.87.87,0,0,0-.87.88V72.7h1Z"/><path class="cls-3" d="M50,62.51H73.9a.59.59,0,0,1,.39.16.55.55,0,0,1,.16.39V73.77a9.12,9.12,0,0,1-9.12,9.12h-6.8a9.12,9.12,0,0,1-9.12-9.12V63.07a.57.57,0,0,1,0-.22.71.71,0,0,1,.12-.18.55.55,0,0,1,.19-.12A.54.54,0,0,1,50,62.51Z"/><path class="cls-5" d="M83.94,47A35.87,35.87,0,0,0,30,91l-3.93,2.4a.38.38,0,0,0-.24.41A.34.34,0,0,0,26,94a.43.43,0,0,0,.24.1l11.06,2.67a.38.38,0,0,0,.15,0,.34.34,0,0,0,.14,0,.38.38,0,0,0,.11-.11.35.35,0,0,0,.06-.14l2.06-10.73a.31.31,0,0,0,0-.21.37.37,0,0,0-.34-.24.42.42,0,0,0-.21.06l-3.27,2a29,29,0,0,1,43.7-34.87,1.38,1.38,0,0,0,1,.27,1.39,1.39,0,0,0,.89-.49l2.64-3.28a1.26,1.26,0,0,0,.25-.47,1.3,1.3,0,0,0-.12-1A1.48,1.48,0,0,0,83.94,47Z"/><path class="cls-5" d="M41.18,105.65A35.87,35.87,0,0,0,95.92,62.73l4-2.33a.46.46,0,0,0,.15-.16.42.42,0,0,0,0-.22.42.42,0,0,0-.29-.32l-11-2.88h-.15l-.14,0a.38.38,0,0,0-.11.11.35.35,0,0,0-.06.14L86.05,67.77a.42.42,0,0,0,0,.22.48.48,0,0,0,.12.17.38.38,0,0,0,.21.07.41.41,0,0,0,.21,0l3.29-1.93a29,29,0,0,1-44.34,34.08,1.31,1.31,0,0,0-1-.3,1.39,1.39,0,0,0-.91.48L41,103.72a1.26,1.26,0,0,0-.25.47,1.35,1.35,0,0,0-.06.53,1.27,1.27,0,0,0,.16.51A1.53,1.53,0,0,0,41.18,105.65Z"/><path class="cls-6" d="M120,81.1a4.09,4.09,0,0,1-2-.38,1.2,1.2,0,0,1-.64-1.08V52c0-1.17.55-1.76,1.63-1.76h14.13c.85,0,1.27.73,1.27,2.2v1.36c0,1.47-.42,2.2-1.27,2.2h-8.94v7.7h8.54c.85,0,1.28.74,1.28,2.2v1.37c0,1.46-.43,2.2-1.28,2.2h-8.54v10.2a1.19,1.19,0,0,1-.61,1.08,4.09,4.09,0,0,1-2,.38Z"/><path class="cls-6" d="M145.82,81.36a7.54,7.54,0,0,1-3.54-.75,4.75,4.75,0,0,1-2.14-2.22,8.36,8.36,0,0,1-.7-3.63V49.28a1.18,1.18,0,0,1,.64-1.07,4.16,4.16,0,0,1,2-.38h1.23a4.23,4.23,0,0,1,2.05.38,1.19,1.19,0,0,1,.64,1.07v25a2.27,2.27,0,0,0,.33,1.39,1.4,1.4,0,0,0,1.16.41,2.85,2.85,0,0,0,1.17-.19,1.64,1.64,0,0,1,.73-.2c.17,0,.33.15.48.44a4.68,4.68,0,0,1,.37,1.08,11.67,11.67,0,0,1,.25,1.23,7.86,7.86,0,0,1,.08.9c0,.35-.25.68-.74,1a6.43,6.43,0,0,1-1.85.73A9.79,9.79,0,0,1,145.82,81.36Z"/><path class="cls-6" d="M162.63,81.36c-4,0-6.91-1.06-8.74-3.19a12.6,12.6,0,0,1-2.75-8.51,15.28,15.28,0,0,1,1.37-7,8.4,8.4,0,0,1,3.78-3.83,12.43,12.43,0,0,1,5.54-1.19,9,9,0,0,1,5.55,1.57,8.87,8.87,0,0,1,3,4.09,15.54,15.54,0,0,1,1,5.48,2.32,2.32,0,0,1-.42,1.23,4.65,4.65,0,0,1-1,1.12,1.71,1.71,0,0,1-1.06.46h-11c.06,1.76.56,3,1.52,3.63a6.14,6.14,0,0,0,3.58,1,7.88,7.88,0,0,0,2.67-.42,20.51,20.51,0,0,0,2-.81,3.27,3.27,0,0,1,1.25-.4c.29,0,.59.22.88.66a7.89,7.89,0,0,1,.75,1.48,4,4,0,0,1,.31,1.25,1.68,1.68,0,0,1-.86,1.28,9,9,0,0,1-2.18,1.1,18.09,18.09,0,0,1-2.68.75A13.43,13.43,0,0,1,162.63,81.36Zm-4.89-14.12h7.39a5.31,5.31,0,0,0-.88-3.33,3.21,3.21,0,0,0-2.68-1.12,5.16,5.16,0,0,0-1.67.31,3,3,0,0,0-1.5,1.25A5.68,5.68,0,0,0,157.74,67.24Z"/><path class="cls-6" d="M185.9,81.36q-6,0-8.73-3.19a12.55,12.55,0,0,1-2.75-8.51,15.29,15.29,0,0,1,1.36-7,8.37,8.37,0,0,1,3.79-3.83,12.43,12.43,0,0,1,5.54-1.19,8.38,8.38,0,0,1,8.56,5.66,15.54,15.54,0,0,1,.94,5.48A2.39,2.39,0,0,1,194.2,70a4.65,4.65,0,0,1-1,1.12,1.76,1.76,0,0,1-1.06.46h-11c0,1.76.56,3,1.51,3.63a6.18,6.18,0,0,0,3.59,1,7.82,7.82,0,0,0,2.66-.42,18.59,18.59,0,0,0,2-.81,3.26,3.26,0,0,1,1.26-.4c.29,0,.58.22.88.66a7.31,7.31,0,0,1,.74,1.48A3.77,3.77,0,0,1,194,78a1.65,1.65,0,0,1-.86,1.28,8.94,8.94,0,0,1-2.17,1.1,18.22,18.22,0,0,1-2.69.75A13.34,13.34,0,0,1,185.9,81.36ZM181,67.24h7.39a5.31,5.31,0,0,0-.88-3.33,3.22,3.22,0,0,0-2.68-1.12,5.26,5.26,0,0,0-1.68.31,3,3,0,0,0-1.49,1.25A5.68,5.68,0,0,0,181,67.24Z"/><path class="cls-6" d="M206.14,81.36a7.54,7.54,0,0,1-3.54-.75,4.73,4.73,0,0,1-2.13-2.22,8.36,8.36,0,0,1-.71-3.63V63.14h-1.41c-.88,0-1.32-.73-1.32-2.2V60.2c0-1.47.44-2.2,1.32-2.2h1.41l.71-4.18a1.5,1.5,0,0,1,.68-1.06,2.91,2.91,0,0,1,1.56-.35h1.45a3.12,3.12,0,0,1,1.67.35,1.18,1.18,0,0,1,.53,1.06V58h2.69c.88,0,1.32.73,1.32,2.2v.74c0,1.47-.44,2.2-1.32,2.2h-2.69V74.32a2.27,2.27,0,0,0,.33,1.39,1.41,1.41,0,0,0,1.17.41,2.8,2.8,0,0,0,1.16-.19,1.64,1.64,0,0,1,.73-.2c.18,0,.34.15.48.44a5.17,5.17,0,0,1,.38,1.08q.15.63.24,1.23a6.38,6.38,0,0,1,.09.9q0,.53-.75,1a6.43,6.43,0,0,1-1.85.73A9.72,9.72,0,0,1,206.14,81.36Z"/><path class="cls-1" d="M117.29,105a.91.91,0,0,1-.46-.09.31.31,0,0,1-.14-.27V91.28a.31.31,0,0,1,.14-.27.91.91,0,0,1,.46-.09h.46a1.55,1.55,0,0,1,.51.07.47.47,0,0,1,.25.23l4,7a5,5,0,0,1,.3.56,3.39,3.39,0,0,1,.22.56,3.63,3.63,0,0,1,.26-.6l.32-.56,3.88-7a.56.56,0,0,1,.25-.23,1.55,1.55,0,0,1,.49-.07h.44a.85.85,0,0,1,.47.09.3.3,0,0,1,.13.27v13.36a.3.3,0,0,1-.13.27.85.85,0,0,1-.47.09h-.16a.91.91,0,0,1-.46-.09.31.31,0,0,1-.14-.27V93.87c0-.2,0-.41,0-.61l-.08,0a6.35,6.35,0,0,1-.5.94l-3.42,6.12a.68.68,0,0,1-.27.32.94.94,0,0,1-.47.08h-.32a.91.91,0,0,1-.45-.08.84.84,0,0,1-.29-.32l-3.5-6.2c-.08-.16-.15-.31-.23-.46s-.15-.3-.25-.46l-.08,0c0,.2,0,.41,0,.61v10.85a.3.3,0,0,1-.13.27.85.85,0,0,1-.47.09Z"/><path class="cls-1" d="M136.09,105.08a3.63,3.63,0,0,1-2.4-.74,2.7,2.7,0,0,1-.9-2.22,3.67,3.67,0,0,1,.35-1.66,2.7,2.7,0,0,1,1.12-1.1,6.34,6.34,0,0,1,2-.61,22.12,22.12,0,0,1,3.08-.19V97.5a2.39,2.39,0,0,0-.21-1,1.54,1.54,0,0,0-.74-.73,3.33,3.33,0,0,0-1.49-.27,6.42,6.42,0,0,0-1.54.17,7.09,7.09,0,0,0-1,.35,1.58,1.58,0,0,1-.53.18.19.19,0,0,1-.13-.07.69.69,0,0,1-.13-.2,2,2,0,0,1-.1-.26,1,1,0,0,1,0-.23c0-.09.11-.2.33-.32a5.82,5.82,0,0,1,.86-.35,11.4,11.4,0,0,1,1.15-.28,7.52,7.52,0,0,1,1.24-.11,5.54,5.54,0,0,1,1.6.21,3,3,0,0,1,1.15.62,2.85,2.85,0,0,1,.69,1,3.45,3.45,0,0,1,.24,1.32V102c0,.56,0,1,.05,1.39s.07.65.1.85a2.23,2.23,0,0,1,.05.42.18.18,0,0,1-.07.15.36.36,0,0,1-.19.11,1,1,0,0,1-.26.06,1.27,1.27,0,0,1-.28,0,.35.35,0,0,1-.26-.1,1,1,0,0,1-.17-.4c0-.2-.1-.47-.17-.82a4.18,4.18,0,0,1-.86.69,5,5,0,0,1-1.16.54A4.3,4.3,0,0,1,136.09,105.08Zm.1-1.12a3.7,3.7,0,0,0,1.21-.19,4.81,4.81,0,0,0,1.08-.5,4.14,4.14,0,0,0,.89-.69V99.66a22.73,22.73,0,0,0-2.6.13,5.32,5.32,0,0,0-1.6.42,1.76,1.76,0,0,0-.8.74,2.61,2.61,0,0,0-.22,1.11,1.84,1.84,0,0,0,.51,1.41A2.12,2.12,0,0,0,136.19,104Z"/><path class="cls-1" d="M145.43,105a.84.84,0,0,1-.45-.09.32.32,0,0,1-.13-.27V97.5a14.53,14.53,0,0,0,0-1.47,6.82,6.82,0,0,0-.1-.8,2.91,2.91,0,0,1,0-.39.17.17,0,0,1,.09-.14,1.12,1.12,0,0,1,.22-.1l.28-.06.25,0a.3.3,0,0,1,.24.1,1.07,1.07,0,0,1,.16.38,6.31,6.31,0,0,1,.18.82,4.37,4.37,0,0,1,.89-.72,6.44,6.44,0,0,1,1.13-.52,4,4,0,0,1,1.22-.2,3.48,3.48,0,0,1,1.66.36,2.44,2.44,0,0,1,1,1,3.34,3.34,0,0,1,.36,1.62v7.26a.3.3,0,0,1-.13.27.8.8,0,0,1-.45.09h-.14a.84.84,0,0,1-.45-.09.32.32,0,0,1-.13-.27V97.46a1.9,1.9,0,0,0-.53-1.46,2.19,2.19,0,0,0-1.55-.5,3.48,3.48,0,0,0-1,.17,4.68,4.68,0,0,0-1,.48,3.79,3.79,0,0,0-.8.75v7.74a.3.3,0,0,1-.13.27.8.8,0,0,1-.45.09Z"/><path class="cls-1" d="M158.69,105.08a3.63,3.63,0,0,1-2.4-.74,2.7,2.7,0,0,1-.9-2.22,3.67,3.67,0,0,1,.35-1.66,2.7,2.7,0,0,1,1.12-1.1,6.34,6.34,0,0,1,2-.61,22.12,22.12,0,0,1,3.08-.19V97.5a2.39,2.39,0,0,0-.21-1,1.54,1.54,0,0,0-.74-.73,3.33,3.33,0,0,0-1.49-.27,6.42,6.42,0,0,0-1.54.17,7.09,7.09,0,0,0-1.05.35,1.58,1.58,0,0,1-.53.18.19.19,0,0,1-.13-.07.69.69,0,0,1-.13-.2,2,2,0,0,1-.1-.26,1,1,0,0,1,0-.23c0-.09.11-.2.33-.32a5.82,5.82,0,0,1,.86-.35,11.4,11.4,0,0,1,1.15-.28,7.52,7.52,0,0,1,1.24-.11,5.54,5.54,0,0,1,1.6.21,3,3,0,0,1,1.15.62,2.85,2.85,0,0,1,.69,1,3.45,3.45,0,0,1,.24,1.32V102c0,.56,0,1,0,1.39s.07.65.1.85a2.23,2.23,0,0,1,.05.42.18.18,0,0,1-.07.15.36.36,0,0,1-.19.11,1,1,0,0,1-.26.06,1.27,1.27,0,0,1-.28,0,.35.35,0,0,1-.26-.1,1,1,0,0,1-.17-.4c0-.2-.1-.47-.17-.82a4.18,4.18,0,0,1-.86.69,5,5,0,0,1-1.16.54A4.3,4.3,0,0,1,158.69,105.08Zm.1-1.12a3.7,3.7,0,0,0,1.21-.19,4.81,4.81,0,0,0,1.08-.5,4.14,4.14,0,0,0,.89-.69V99.66a22.73,22.73,0,0,0-2.6.13,5.32,5.32,0,0,0-1.6.42,1.76,1.76,0,0,0-.8.74,2.61,2.61,0,0,0-.22,1.11,1.84,1.84,0,0,0,.51,1.41A2.12,2.12,0,0,0,158.79,104Z"/><path class="cls-1" d="M170.53,109.2a7.28,7.28,0,0,1-2.09-.26,2.68,2.68,0,0,1-1.36-.82,2.17,2.17,0,0,1-.47-1.44,2.72,2.72,0,0,1,.25-1.14,3.34,3.34,0,0,1,.67-.92,3.53,3.53,0,0,1,.9-.62l0,0a2.21,2.21,0,0,1-.63-.66,1.73,1.73,0,0,1-.25-.92,1.94,1.94,0,0,1,.32-1.09,2.31,2.31,0,0,1,.92-.75,2.85,2.85,0,0,1-1.35-1.11,3.18,3.18,0,0,1-.47-1.71,3.51,3.51,0,0,1,.43-1.74,3.07,3.07,0,0,1,1.27-1.17,4.58,4.58,0,0,1,2.06-.43,4.93,4.93,0,0,1,.55,0,3.86,3.86,0,0,1,.51.09h3.52a.3.3,0,0,1,.26.11.57.57,0,0,1,.08.35v.2c0,.31-.11.46-.34.46h-.55c-.2,0-.41,0-.63,0a4.71,4.71,0,0,1-.58-.09l0,0a2.2,2.2,0,0,1,.48.53,2.7,2.7,0,0,1,.32.71,3.4,3.4,0,0,1,.12,1,3,3,0,0,1-.44,1.64,2.85,2.85,0,0,1-1.29,1.12,4.87,4.87,0,0,1-2.11.4,3.15,3.15,0,0,0-1,.15,1.42,1.42,0,0,0-.65.44,1.2,1.2,0,0,0-.22.71,1,1,0,0,0,.24.72,1.48,1.48,0,0,0,.67.4,4.57,4.57,0,0,0,1,.21l1.15.15a7.57,7.57,0,0,1,1.79.4,2.09,2.09,0,0,1,1.47,2.18,2.53,2.53,0,0,1-.5,1.6,3,3,0,0,1-1.5,1A7.45,7.45,0,0,1,170.53,109.2Zm.2-1.06a4.61,4.61,0,0,0,2.31-.45,1.5,1.5,0,0,0,.75-1.39,1.26,1.26,0,0,0-.27-.85,1.62,1.62,0,0,0-.74-.46,5.87,5.87,0,0,0-1.05-.22l-1.2-.14a6.48,6.48,0,0,1-1.18-.23,3.5,3.5,0,0,0-1.09.8,1.84,1.84,0,0,0-.45,1.26,1.45,1.45,0,0,0,.31,1,1.87,1.87,0,0,0,.95.55A6.31,6.31,0,0,0,170.73,108.14Zm0-8.32a3.51,3.51,0,0,0,1.32-.22,1.71,1.71,0,0,0,.87-.68,2.05,2.05,0,0,0,.31-1.2,2.43,2.43,0,0,0-.31-1.3,1.79,1.79,0,0,0-.87-.73,3.5,3.5,0,0,0-1.32-.23,3.63,3.63,0,0,0-1.33.23,1.86,1.86,0,0,0-.88.73,2.53,2.53,0,0,0-.31,1.3,1.83,1.83,0,0,0,.69,1.61A3.07,3.07,0,0,0,170.73,99.82Z"/><path class="cls-1" d="M182.13,105.08a4.51,4.51,0,0,1-3.43-1.26,5.75,5.75,0,0,1-1.19-4,7.59,7.59,0,0,1,.51-3A3.9,3.9,0,0,1,179.53,95a4.63,4.63,0,0,1,2.46-.62,3.83,3.83,0,0,1,2.18.59,3.64,3.64,0,0,1,1.33,1.74,7.89,7.89,0,0,1,.45,2.85.56.56,0,0,1-.08.3.64.64,0,0,1-.22.27.43.43,0,0,1-.3.11h-6.5a4.3,4.3,0,0,0,.82,2.78,3.08,3.08,0,0,0,2.48.94,5.1,5.1,0,0,0,1.65-.22,4.05,4.05,0,0,0,1-.45,1.47,1.47,0,0,1,.46-.23.24.24,0,0,1,.2.13,1.38,1.38,0,0,1,.14.3,1,1,0,0,1,.06.27.56.56,0,0,1-.28.4,3.26,3.26,0,0,1-.76.43,5.7,5.7,0,0,1-1.12.35A6,6,0,0,1,182.13,105.08Zm-3.28-5.94h5.8a4.35,4.35,0,0,0-.73-2.74,2.48,2.48,0,0,0-2.07-.92,3,3,0,0,0-1.63.43,2.72,2.72,0,0,0-1,1.24A5.71,5.71,0,0,0,178.85,99.14Z"/><path class="cls-1" d="M189.89,105a.84.84,0,0,1-.45-.09.32.32,0,0,1-.13-.27V97.5a14.53,14.53,0,0,0-.05-1.47,6.82,6.82,0,0,0-.1-.8,2.91,2.91,0,0,1,0-.39.17.17,0,0,1,.09-.14,1.12,1.12,0,0,1,.22-.1l.28-.06.25,0a.3.3,0,0,1,.24.1,1.07,1.07,0,0,1,.16.38,6.31,6.31,0,0,1,.18.82,4.75,4.75,0,0,1,.86-.72,5.56,5.56,0,0,1,1.1-.52,3.87,3.87,0,0,1,1.2-.2,4.11,4.11,0,0,1,1.13.16,2.6,2.6,0,0,1,.94.51,2.43,2.43,0,0,1,.65.93,4,4,0,0,1,.9-.82,5,5,0,0,1,1.16-.57,3.82,3.82,0,0,1,1.22-.21,3.29,3.29,0,0,1,1.6.36,2.42,2.42,0,0,1,1,1,3.35,3.35,0,0,1,.35,1.62v7.26a.3.3,0,0,1-.13.27.8.8,0,0,1-.45.09h-.14a.84.84,0,0,1-.45-.09.32.32,0,0,1-.13-.27V97.46a2,2,0,0,0-.5-1.46,2,2,0,0,0-1.48-.5,3.22,3.22,0,0,0-.93.14,3.91,3.91,0,0,0-.83.38,4.42,4.42,0,0,0-.66.51,3.78,3.78,0,0,0-.44.51l0-.6a1.14,1.14,0,0,1,.13.43,4.36,4.36,0,0,1,0,.51v7.26a.3.3,0,0,1-.13.27.8.8,0,0,1-.45.09h-.16a.84.84,0,0,1-.45-.09.32.32,0,0,1-.13-.27V97.46a2,2,0,0,0-.5-1.46,2,2,0,0,0-1.48-.5,3.16,3.16,0,0,0-1,.17,4.78,4.78,0,0,0-1,.48,3.62,3.62,0,0,0-.78.73v7.76a.3.3,0,0,1-.13.27.8.8,0,0,1-.45.09Z"/><path class="cls-1" d="M210.43,105.08a4.51,4.51,0,0,1-3.43-1.26,5.75,5.75,0,0,1-1.19-4,7.59,7.59,0,0,1,.51-3A3.9,3.9,0,0,1,207.83,95a4.63,4.63,0,0,1,2.46-.62,3.83,3.83,0,0,1,2.18.59,3.64,3.64,0,0,1,1.33,1.74,7.89,7.89,0,0,1,.45,2.85.56.56,0,0,1-.08.3.64.64,0,0,1-.22.27.43.43,0,0,1-.3.11h-6.5A4.3,4.3,0,0,0,208,103a3.08,3.08,0,0,0,2.48.94,5.1,5.1,0,0,0,1.65-.22,4.05,4.05,0,0,0,1-.45,1.47,1.47,0,0,1,.46-.23.24.24,0,0,1,.2.13,1.38,1.38,0,0,1,.14.3,1,1,0,0,1,.06.27.56.56,0,0,1-.28.4,3.26,3.26,0,0,1-.76.43,5.7,5.7,0,0,1-1.12.35A6,6,0,0,1,210.43,105.08Zm-3.28-5.94H213a4.35,4.35,0,0,0-.73-2.74,2.48,2.48,0,0,0-2.07-.92,3,3,0,0,0-1.63.43,2.72,2.72,0,0,0-1,1.24A5.71,5.71,0,0,0,207.15,99.14Z"/><path class="cls-1" d="M218.19,105a.84.84,0,0,1-.45-.09.32.32,0,0,1-.13-.27V97.5a14.53,14.53,0,0,0-.05-1.47,6.82,6.82,0,0,0-.1-.8,2.91,2.91,0,0,1-.05-.39.17.17,0,0,1,.09-.14,1.12,1.12,0,0,1,.22-.1l.28-.06.25,0a.3.3,0,0,1,.24.1,1.07,1.07,0,0,1,.16.38,6.31,6.31,0,0,1,.18.82,4.37,4.37,0,0,1,.89-.72,6.44,6.44,0,0,1,1.13-.52,4,4,0,0,1,1.22-.2,3.48,3.48,0,0,1,1.66.36,2.44,2.44,0,0,1,1,1,3.34,3.34,0,0,1,.36,1.62v7.26a.3.3,0,0,1-.13.27.8.8,0,0,1-.45.09h-.14a.84.84,0,0,1-.45-.09.32.32,0,0,1-.13-.27V97.46A1.9,1.9,0,0,0,223.3,96a2.19,2.19,0,0,0-1.55-.5,3.48,3.48,0,0,0-1,.17,4.68,4.68,0,0,0-1,.48,3.79,3.79,0,0,0-.8.75v7.74a.3.3,0,0,1-.13.27.8.8,0,0,1-.45.09Z"/><path class="cls-1" d="M231.65,105.08a2.65,2.65,0,0,1-1.25-.27,1.71,1.71,0,0,1-.76-.81,3.27,3.27,0,0,1-.25-1.34v-7h-1.26c-.22,0-.34-.15-.34-.46V95c0-.3.12-.46.34-.46h1.26l.16-2.18a.5.5,0,0,1,.15-.28.65.65,0,0,1,.35-.08h.1a.73.73,0,0,1,.42.09.32.32,0,0,1,.12.27V94.5h2c.23,0,.34.16.34.46v.2c0,.31-.11.46-.34.46h-2v7a1.6,1.6,0,0,0,.26,1.05,1.09,1.09,0,0,0,.86.29,2,2,0,0,0,.79-.11,1.17,1.17,0,0,1,.39-.11.15.15,0,0,1,.13.1.9.9,0,0,1,.08.23,1.18,1.18,0,0,1,0,.25,1.36,1.36,0,0,1,0,.18c0,.12-.09.23-.27.31a2.53,2.53,0,0,1-.64.21A3.4,3.4,0,0,1,231.65,105.08Z"/><path class="cls-1" d="M244.13,105.08a6.92,6.92,0,0,1-1.47-.14,6,6,0,0,1-1.24-.37,5,5,0,0,1-.93-.49,1.21,1.21,0,0,1-.24-.21.34.34,0,0,1-.1-.21,1.11,1.11,0,0,1,0-.23,1.61,1.61,0,0,1,.09-.26,1.18,1.18,0,0,1,.14-.22.26.26,0,0,1,.18-.09,1.59,1.59,0,0,1,.6.26,6.42,6.42,0,0,0,1.18.52,5.26,5.26,0,0,0,1.78.26,3.58,3.58,0,0,0,1.54-.3,2.22,2.22,0,0,0,1-.87,2.54,2.54,0,0,0,.35-1.39,2.24,2.24,0,0,0-.26-1.14,2.5,2.5,0,0,0-.71-.78,6.87,6.87,0,0,0-1-.58c-.37-.17-.76-.34-1.16-.5s-.85-.38-1.29-.59a5.77,5.77,0,0,1-1.17-.73A3.14,3.14,0,0,1,240.6,96a3.67,3.67,0,0,1-.31-1.58,3.44,3.44,0,0,1,.31-1.44,3.36,3.36,0,0,1,.88-1.14,4.19,4.19,0,0,1,1.35-.74,5.46,5.46,0,0,1,1.7-.26,6.2,6.2,0,0,1,1.05.09,7,7,0,0,1,1,.24,3.45,3.45,0,0,1,.79.35.79.79,0,0,1,.23.19.3.3,0,0,1,.07.19.88.88,0,0,1,0,.21,1.38,1.38,0,0,1-.08.27.52.52,0,0,1-.13.23.21.21,0,0,1-.16.09,1.52,1.52,0,0,1-.53-.18,5.65,5.65,0,0,0-.93-.34,5.18,5.18,0,0,0-1.34-.16,3.61,3.61,0,0,0-1.43.28,2.43,2.43,0,0,0-1,.81,2.3,2.3,0,0,0-.37,1.31,2,2,0,0,0,.42,1.32,3.22,3.22,0,0,0,1.12.83l1.5.69q.66.28,1.32.6a6.15,6.15,0,0,1,1.2.77,3.25,3.25,0,0,1,.86,1.11,3.66,3.66,0,0,1,.32,1.64,3.88,3.88,0,0,1-.3,1.56,3.11,3.11,0,0,1-.87,1.18,4,4,0,0,1-1.36.74A5.36,5.36,0,0,1,244.13,105.08Z"/><path class="cls-1" d="M252.55,109.12a.83.83,0,0,1-.38-.07.21.21,0,0,1-.14-.19.93.93,0,0,1,0-.14s0-.13.08-.22l1.74-4.46-.08,1.16L250.07,95s0-.07,0-.13a1,1,0,0,1,0-.15.25.25,0,0,1,.15-.23,1.24,1.24,0,0,1,.45-.07h.12a1.07,1.07,0,0,1,.39.06.38.38,0,0,1,.21.22l2.88,8.38h.08l2.82-8.38a.4.4,0,0,1,.22-.22,1.16,1.16,0,0,1,.4-.06h.1a.92.92,0,0,1,.4.07.26.26,0,0,1,.12.23.71.71,0,0,1,0,.14.3.3,0,0,1,0,.16l-4.92,13.72a.4.4,0,0,1-.23.26,1.1,1.1,0,0,1-.45.08Z"/><path class="cls-1" d="M263.13,105.14A5.48,5.48,0,0,1,262,105a5,5,0,0,1-.94-.29,3,3,0,0,1-.63-.35c-.15-.12-.23-.22-.23-.32a.72.72,0,0,1,.09-.28,1.85,1.85,0,0,1,.21-.33.33.33,0,0,1,.22-.15,1.06,1.06,0,0,1,.4.18,4.71,4.71,0,0,0,.82.36,3.69,3.69,0,0,0,1.2.18,2.43,2.43,0,0,0,1.59-.45,1.51,1.51,0,0,0,.55-1.25,1.77,1.77,0,0,0-.29-1.08,2.32,2.32,0,0,0-.78-.66,9.35,9.35,0,0,0-1.09-.48c-.33-.12-.65-.25-1-.4a3.64,3.64,0,0,1-.85-.55,2.45,2.45,0,0,1-.6-.81,2.92,2.92,0,0,1-.22-1.18,2.66,2.66,0,0,1,.41-1.47,2.87,2.87,0,0,1,1.14-1,3.92,3.92,0,0,1,1.69-.35,5.66,5.66,0,0,1,1.61.22,2.46,2.46,0,0,1,.53.23c.14.09.2.17.2.25a.78.78,0,0,1-.08.32,1.17,1.17,0,0,1-.19.35q-.11.15-.21.15a2.82,2.82,0,0,1-.56-.21,3.11,3.11,0,0,0-1.24-.21,2.4,2.4,0,0,0-1.45.41,1.41,1.41,0,0,0-.55,1.17,1.45,1.45,0,0,0,.21.82,1.67,1.67,0,0,0,.62.55,6.61,6.61,0,0,0,1,.45,10.76,10.76,0,0,1,1.17.52,4.38,4.38,0,0,1,.94.66,2.67,2.67,0,0,1,.63.9,3.12,3.12,0,0,1,.22,1.24,2.72,2.72,0,0,1-.43,1.54,2.88,2.88,0,0,1-1.19,1A3.9,3.9,0,0,1,263.13,105.14Z"/><path class="cls-1" d="M272.37,105.08a2.65,2.65,0,0,1-1.25-.27,1.71,1.71,0,0,1-.76-.81,3.27,3.27,0,0,1-.25-1.34v-7h-1.26c-.22,0-.34-.15-.34-.46V95c0-.3.12-.46.34-.46h1.26l.16-2.18a.5.5,0,0,1,.15-.28.65.65,0,0,1,.35-.08h.1a.73.73,0,0,1,.42.09.32.32,0,0,1,.12.27V94.5h2c.23,0,.34.16.34.46v.2c0,.31-.11.46-.34.46h-2v7a1.6,1.6,0,0,0,.26,1.05,1.08,1.08,0,0,0,.86.29,2,2,0,0,0,.79-.11,1.17,1.17,0,0,1,.39-.11.16.16,0,0,1,.13.1.9.9,0,0,1,.08.23,1.18,1.18,0,0,1,0,.25,1.36,1.36,0,0,1,0,.18c0,.12-.09.23-.27.31a2.53,2.53,0,0,1-.64.21A3.4,3.4,0,0,1,272.37,105.08Z"/><path class="cls-1" d="M280.55,105.08a4.51,4.51,0,0,1-3.43-1.26,5.75,5.75,0,0,1-1.19-4,7.59,7.59,0,0,1,.51-3A3.9,3.9,0,0,1,278,95a4.63,4.63,0,0,1,2.46-.62,3.83,3.83,0,0,1,2.18.59,3.64,3.64,0,0,1,1.33,1.74,7.89,7.89,0,0,1,.45,2.85.67.67,0,0,1-.08.3.64.64,0,0,1-.22.27.43.43,0,0,1-.3.11h-6.5a4.3,4.3,0,0,0,.82,2.78,3.08,3.08,0,0,0,2.48.94,5.1,5.1,0,0,0,1.65-.22,4.05,4.05,0,0,0,1-.45,1.47,1.47,0,0,1,.46-.23.24.24,0,0,1,.2.13,1.38,1.38,0,0,1,.14.3,1,1,0,0,1,.06.27.56.56,0,0,1-.28.4,3.26,3.26,0,0,1-.76.43,5.7,5.7,0,0,1-1.12.35A6,6,0,0,1,280.55,105.08Zm-3.28-5.94h5.8a4.35,4.35,0,0,0-.73-2.74,2.48,2.48,0,0,0-2.07-.92,3,3,0,0,0-1.63.43,2.72,2.72,0,0,0-1,1.24A5.71,5.71,0,0,0,277.27,99.14Z"/><path class="cls-1" d="M288.31,105a.84.84,0,0,1-.45-.09.32.32,0,0,1-.13-.27V97.5a14.53,14.53,0,0,0-.05-1.47,6.82,6.82,0,0,0-.1-.8,2.91,2.91,0,0,1-.05-.39.17.17,0,0,1,.09-.14,1.12,1.12,0,0,1,.22-.1l.28-.06.25,0a.3.3,0,0,1,.24.1,1.07,1.07,0,0,1,.16.38,6.31,6.31,0,0,1,.18.82,4.75,4.75,0,0,1,.86-.72,5.56,5.56,0,0,1,1.1-.52,3.87,3.87,0,0,1,1.2-.2,4.11,4.11,0,0,1,1.13.16,2.6,2.6,0,0,1,.94.51,2.43,2.43,0,0,1,.65.93,4,4,0,0,1,.9-.82,5,5,0,0,1,1.16-.57,3.82,3.82,0,0,1,1.22-.21,3.29,3.29,0,0,1,1.6.36,2.42,2.42,0,0,1,1,1,3.35,3.35,0,0,1,.35,1.62v7.26a.3.3,0,0,1-.13.27.8.8,0,0,1-.45.09h-.14a.84.84,0,0,1-.45-.09.32.32,0,0,1-.13-.27V97.46a2,2,0,0,0-.5-1.46,2,2,0,0,0-1.48-.5,3.22,3.22,0,0,0-.93.14A3.91,3.91,0,0,0,296,96a4.42,4.42,0,0,0-.66.51,3.78,3.78,0,0,0-.44.51l0-.6a1.14,1.14,0,0,1,.13.43,4.36,4.36,0,0,1,0,.51v7.26a.3.3,0,0,1-.13.27.8.8,0,0,1-.45.09h-.16a.84.84,0,0,1-.45-.09.32.32,0,0,1-.13-.27V97.46a2,2,0,0,0-.5-1.46,2,2,0,0,0-1.48-.5,3.16,3.16,0,0,0-1,.17,4.78,4.78,0,0,0-1,.48,3.62,3.62,0,0,0-.78.73v7.76a.3.3,0,0,1-.13.27.8.8,0,0,1-.45.09Z"/></svg>