<svg width="189.819" height="43.263" viewBox="0 0 189.819 43.263"
    xmlns="http://www.w3.org/2000/svg">
    <g id="svgGroup" stroke-linecap="round" fill-rule="evenodd" font-size="9pt" stroke="#00ddff" stroke-width="0.25mm" fill="#000000" style="stroke:#00ddff;stroke-width:0.25mm;fill:#000000">
        <path d="M 56.097 28.704 L 50.37 27.186 A 18.441 18.441 0 0 1 47.962 26.428 Q 46.76 25.95 45.826 25.337 A 7.976 7.976 0 0 1 44.229 23.978 A 7.592 7.592 0 0 1 42.349 19.596 A 10.07 10.07 0 0 1 42.297 18.561 Q 42.297 14.904 45.264 12.213 A 9.206 9.206 0 0 1 48.45 10.375 Q 50.885 9.522 54.303 9.522 A 27.093 27.093 0 0 1 56.981 9.647 Q 58.298 9.778 59.442 10.047 A 15.343 15.343 0 0 1 59.961 10.178 Q 62.376 10.833 63.722 11.903 Q 65.067 12.972 65.067 14.214 A 3.046 3.046 0 0 1 64.921 15.17 A 2.698 2.698 0 0 1 64.619 15.801 Q 64.17 16.491 63.411 16.836 A 15.385 15.385 0 0 0 62.727 16.408 Q 62.416 16.223 62.061 16.028 A 31.428 31.428 0 0 0 61.307 15.629 Q 60.03 14.973 58.305 14.525 A 13.824 13.824 0 0 0 56.044 14.142 A 17.389 17.389 0 0 0 54.51 14.076 Q 52.252 14.076 50.643 14.725 A 6.479 6.479 0 0 0 49.611 15.249 A 4.234 4.234 0 0 0 48.476 16.265 Q 47.796 17.16 47.751 18.385 A 4.778 4.778 0 0 0 47.748 18.561 Q 47.748 20.079 48.818 21.218 A 4.492 4.492 0 0 0 49.848 22.018 Q 50.803 22.572 52.233 22.908 L 56.994 24.081 A 21.182 21.182 0 0 1 59.882 24.967 Q 62.474 25.985 64.032 27.566 A 8.019 8.019 0 0 1 66.249 32.08 A 11.191 11.191 0 0 1 66.378 33.81 Q 66.378 38.226 63.135 40.71 Q 60.683 42.588 56.574 43.046 A 25.52 25.52 0 0 1 53.751 43.194 Q 48.507 43.194 45.195 41.573 A 12.084 12.084 0 0 1 43.905 40.848 Q 41.883 39.528 41.883 38.019 A 3.169 3.169 0 0 1 42.191 36.671 A 3.872 3.872 0 0 1 42.332 36.398 A 3.155 3.155 0 0 1 43.306 35.347 A 3.959 3.959 0 0 1 43.677 35.121 Q 45.54 36.432 48.024 37.536 A 12.684 12.684 0 0 0 51.49 38.497 A 16.31 16.31 0 0 0 53.682 38.64 Q 60.858 38.64 60.858 33.81 A 5.416 5.416 0 0 0 60.651 32.277 A 4.244 4.244 0 0 0 59.651 30.533 A 5.412 5.412 0 0 0 58.268 29.495 Q 57.632 29.153 56.845 28.907 A 10.912 10.912 0 0 0 56.097 28.704 Z M 99.084 20.7 L 99.084 37.053 Q 99.084 38.01 98.851 38.68 A 2.563 2.563 0 0 1 98.498 39.365 A 4.424 4.424 0 0 1 97.872 40.039 Q 97.546 40.328 97.132 40.602 A 8.773 8.773 0 0 1 96.738 40.848 Q 95.613 41.458 93.977 42.004 A 32.228 32.228 0 0 1 92.322 42.504 A 20.682 20.682 0 0 1 89.048 43.113 A 27.472 27.472 0 0 1 86.112 43.263 A 26.627 26.627 0 0 1 82.345 43.014 Q 78.516 42.465 76.073 40.71 A 8.251 8.251 0 0 1 72.591 34.658 A 11.909 11.909 0 0 1 72.519 33.327 A 10.695 10.695 0 0 1 72.874 30.492 A 7.565 7.565 0 0 1 75.521 26.462 Q 78.004 24.492 82.069 23.821 A 24.456 24.456 0 0 1 83.835 23.598 L 93.633 22.632 L 93.633 20.7 Q 93.633 18.311 92.641 16.816 A 4.758 4.758 0 0 0 91.563 15.663 A 7.19 7.19 0 0 0 89.087 14.461 Q 88.062 14.175 86.844 14.102 A 14.434 14.434 0 0 0 85.974 14.076 Q 83.145 14.076 80.558 14.904 A 34.2 34.2 0 0 0 78.117 15.784 A 25.807 25.807 0 0 0 75.969 16.767 A 5.879 5.879 0 0 1 75.14 15.868 A 6.703 6.703 0 0 1 74.969 15.629 A 2.707 2.707 0 0 1 74.648 15.009 A 2.15 2.15 0 0 1 74.52 14.283 A 2.705 2.705 0 0 1 75.622 12.076 A 4.784 4.784 0 0 1 76.521 11.523 A 15.102 15.102 0 0 1 78.803 10.578 A 19.76 19.76 0 0 1 80.834 10.04 Q 83.283 9.522 86.043 9.522 A 21.704 21.704 0 0 1 89.877 9.84 Q 91.989 10.219 93.683 11.052 A 11.264 11.264 0 0 1 95.565 12.213 Q 99.084 14.904 99.084 20.7 Z M 189.819 20.7 L 189.819 37.053 Q 189.819 38.01 189.586 38.68 A 2.563 2.563 0 0 1 189.233 39.365 A 4.424 4.424 0 0 1 188.607 40.039 Q 188.281 40.328 187.867 40.602 A 8.773 8.773 0 0 1 187.473 40.848 Q 186.348 41.458 184.712 42.004 A 32.228 32.228 0 0 1 183.057 42.504 A 20.682 20.682 0 0 1 179.783 43.113 A 27.472 27.472 0 0 1 176.847 43.263 A 26.627 26.627 0 0 1 173.08 43.014 Q 169.251 42.465 166.808 40.71 A 8.251 8.251 0 0 1 163.326 34.658 A 11.909 11.909 0 0 1 163.254 33.327 A 10.695 10.695 0 0 1 163.609 30.492 A 7.565 7.565 0 0 1 166.256 26.462 Q 168.739 24.492 172.804 23.821 A 24.456 24.456 0 0 1 174.57 23.598 L 184.368 22.632 L 184.368 20.7 Q 184.368 18.311 183.376 16.816 A 4.758 4.758 0 0 0 182.298 15.663 A 7.19 7.19 0 0 0 179.822 14.461 Q 178.797 14.175 177.579 14.102 A 14.434 14.434 0 0 0 176.709 14.076 Q 173.88 14.076 171.293 14.904 A 34.2 34.2 0 0 0 168.852 15.784 A 25.807 25.807 0 0 0 166.704 16.767 A 5.879 5.879 0 0 1 165.875 15.868 A 6.703 6.703 0 0 1 165.704 15.629 A 2.707 2.707 0 0 1 165.383 15.009 A 2.15 2.15 0 0 1 165.255 14.283 A 2.705 2.705 0 0 1 166.357 12.076 A 4.784 4.784 0 0 1 167.256 11.523 A 15.102 15.102 0 0 1 169.538 10.578 A 19.76 19.76 0 0 1 171.569 10.04 Q 174.018 9.522 176.778 9.522 A 21.704 21.704 0 0 1 180.612 9.84 Q 182.724 10.219 184.418 11.052 A 11.264 11.264 0 0 1 186.3 12.213 Q 189.819 14.904 189.819 20.7 Z M 0 27.807 L 0 22.149 L 5.589 22.149 L 5.589 27.324 A 15.826 15.826 0 0 0 5.889 30.508 Q 6.549 33.717 8.66 35.639 A 10.647 10.647 0 0 0 15.169 38.389 A 13.991 13.991 0 0 0 16.284 38.433 A 12.261 12.261 0 0 0 20.107 37.859 A 10.371 10.371 0 0 0 23.909 35.639 A 8.874 8.874 0 0 0 26.432 31.499 Q 26.859 30.058 26.953 28.32 A 18.541 18.541 0 0 0 26.979 27.324 L 26.979 22.149 L 32.637 22.149 L 32.637 27.807 A 19.093 19.093 0 0 1 32.192 32.018 A 15.014 15.014 0 0 1 30.74 35.915 Q 28.842 39.399 25.185 41.297 A 16.122 16.122 0 0 1 20.922 42.763 Q 19.051 43.14 16.903 43.187 A 28.213 28.213 0 0 1 16.284 43.194 Q 11.39 43.194 7.853 41.497 A 14.383 14.383 0 0 1 7.452 41.297 Q 3.795 39.399 1.898 35.915 A 15.454 15.454 0 0 1 0.204 30.718 A 20.072 20.072 0 0 1 0 27.807 Z M 134.895 20.217 L 134.895 28.152 L 129.375 28.152 L 129.375 20.631 Q 129.375 18.309 128.447 16.833 A 4.721 4.721 0 0 0 127.409 15.663 Q 125.554 14.167 122.565 14.081 A 12.817 12.817 0 0 0 122.199 14.076 Q 120.06 14.076 118.059 14.766 Q 116.058 15.456 114.678 16.353 L 114.678 28.152 L 109.158 28.152 L 109.158 16.629 A 5.42 5.42 0 0 1 109.262 15.538 A 3.914 3.914 0 0 1 109.745 14.283 A 4.118 4.118 0 0 1 110.334 13.539 Q 110.897 12.967 111.78 12.42 A 14.892 14.892 0 0 1 113.566 11.469 Q 114.506 11.043 115.614 10.669 A 28.456 28.456 0 0 1 116.507 10.385 Q 119.37 9.522 122.268 9.522 Q 125.787 9.522 128.478 10.592 Q 130.906 11.557 132.211 13.168 A 6.622 6.622 0 0 1 132.48 13.524 A 12.166 12.166 0 0 1 132.771 13.825 Q 132.998 14.067 133.17 14.283 Q 133.385 14.551 133.599 14.945 A 7.433 7.433 0 0 1 133.722 15.18 Q 134.097 15.823 134.389 16.758 A 12.868 12.868 0 0 1 134.55 17.319 A 10.337 10.337 0 0 1 134.838 18.973 A 13.152 13.152 0 0 1 134.895 20.217 Z M 155.112 20.355 L 155.112 28.152 L 149.592 28.152 L 149.592 20.631 A 9.379 9.379 0 0 0 149.422 18.782 Q 149.201 17.687 148.696 16.858 A 4.698 4.698 0 0 0 147.66 15.663 A 6.652 6.652 0 0 0 145.082 14.383 Q 144.13 14.134 143.011 14.087 A 12.611 12.611 0 0 0 142.485 14.076 Q 140.07 14.076 137.828 15.077 A 12.834 12.834 0 0 0 133.795 17.936 A 15.132 15.132 0 0 0 133.791 17.94 L 131.583 13.938 A 13.338 13.338 0 0 1 133.727 12.216 Q 134.728 11.562 135.928 10.994 A 22.09 22.09 0 0 1 136.275 10.833 Q 139.173 9.522 142.899 9.522 A 19.913 19.913 0 0 1 145.968 9.747 Q 147.644 10.008 149.06 10.575 A 12.104 12.104 0 0 1 149.351 10.695 Q 152.076 11.868 153.594 14.283 A 9.428 9.428 0 0 1 154.779 17.2 Q 155.06 18.416 155.104 19.826 A 16.977 16.977 0 0 1 155.112 20.355 Z M 32.637 2.553 L 32.637 24.978 L 26.979 24.978 L 26.979 0.483 Q 27.324 0.345 28.049 0.173 Q 28.773 0 29.601 0 A 6.269 6.269 0 0 1 30.435 0.052 Q 30.847 0.107 31.182 0.222 A 2.407 2.407 0 0 1 31.878 0.587 A 1.789 1.789 0 0 1 32.465 1.418 Q 32.575 1.724 32.615 2.104 A 4.329 4.329 0 0 1 32.637 2.553 Z M 5.589 2.553 L 5.589 24.978 L 0 24.978 L 0 0.483 Q 0.345 0.345 1.07 0.173 Q 1.794 0 2.622 0 A 6.279 6.279 0 0 1 3.413 0.046 Q 4.294 0.159 4.808 0.542 A 1.849 1.849 0 0 1 4.865 0.587 Q 5.44 1.052 5.558 2.017 A 4.398 4.398 0 0 1 5.589 2.553 Z M 93.633 36.984 L 93.633 26.979 L 85.077 27.876 A 17.816 17.816 0 0 0 83.206 28.113 Q 81.179 28.488 79.968 29.316 A 4.983 4.983 0 0 0 79.764 29.463 A 4.259 4.259 0 0 0 78.095 32.403 A 6.326 6.326 0 0 0 78.039 33.258 A 5.116 5.116 0 0 0 78.388 35.183 Q 78.882 36.411 80.075 37.26 A 6.678 6.678 0 0 0 81.921 38.157 Q 83.642 38.709 86.112 38.709 A 23.672 23.672 0 0 0 88.066 38.633 Q 88.981 38.557 89.765 38.405 A 10.884 10.884 0 0 0 90.908 38.123 Q 92.441 37.648 93.276 37.197 A 4.524 4.524 0 0 0 93.633 36.984 Z M 184.368 36.984 L 184.368 26.979 L 175.812 27.876 A 17.816 17.816 0 0 0 173.941 28.113 Q 171.914 28.488 170.703 29.316 A 4.983 4.983 0 0 0 170.499 29.463 A 4.259 4.259 0 0 0 168.83 32.403 A 6.326 6.326 0 0 0 168.774 33.258 A 5.116 5.116 0 0 0 169.123 35.183 Q 169.617 36.411 170.81 37.26 A 6.678 6.678 0 0 0 172.656 38.157 Q 174.377 38.709 176.847 38.709 A 23.672 23.672 0 0 0 178.801 38.633 Q 179.716 38.557 180.5 38.405 A 10.884 10.884 0 0 0 181.643 38.123 Q 183.176 37.648 184.011 37.197 A 4.524 4.524 0 0 0 184.368 36.984 Z M 129.375 40.158 L 129.375 24.495 L 134.895 24.495 L 134.895 42.159 Q 134.55 42.297 133.826 42.47 Q 133.101 42.642 132.342 42.642 A 6.279 6.279 0 0 1 131.551 42.596 Q 130.67 42.483 130.156 42.1 A 1.849 1.849 0 0 1 130.1 42.056 A 1.802 1.802 0 0 1 129.534 41.228 Q 129.427 40.922 129.392 40.544 A 4.178 4.178 0 0 1 129.375 40.158 Z M 149.592 40.158 L 149.592 24.495 L 155.112 24.495 L 155.112 42.159 Q 154.767 42.297 154.043 42.47 Q 153.318 42.642 152.559 42.642 A 6.279 6.279 0 0 1 151.768 42.596 Q 150.887 42.483 150.373 42.1 A 1.849 1.849 0 0 1 150.317 42.056 A 1.802 1.802 0 0 1 149.751 41.228 Q 149.644 40.922 149.609 40.544 A 4.178 4.178 0 0 1 149.592 40.158 Z M 109.158 40.158 L 109.158 24.495 L 114.678 24.495 L 114.678 42.159 A 4.097 4.097 0 0 1 114.457 42.239 Q 114.139 42.346 113.643 42.47 Q 112.953 42.642 112.125 42.642 A 5.733 5.733 0 0 1 111.296 42.586 Q 110.442 42.461 109.917 42.056 A 1.824 1.824 0 0 1 109.298 41.151 Q 109.197 40.842 109.169 40.464 A 4.099 4.099 0 0 1 109.158 40.158 Z" vector-effect="non-scaling-stroke"/>
    </g>
</svg>