<svg width="30" height="60" viewBox="0 0 30 60" fill="none" xmlns="http://www.w3.org/2000/svg">
<path d="M27.31 0.57L27.68 0.34L29.62 7.48L29.25 7.64L27.31 0.57ZM26.84 10.79V0.83L27.18 0.62V10.79H26.84ZM11.25 4.69L28.27 0L0 15.57L11.25 4.69Z" fill="#00B5BC"/>
<path d="M9.9485 11.11L18.1885 6.61C18.1885 6.61 20.9885 11.69 18.1885 15C14.6685 18.18 9.9485 11.11 9.9485 11.11Z" fill="#00B5BC"/>
<path d="M8 26.99L17.22 17L24.2 26.64L17.22 59.15L8 26.99Z" fill="#00B5BC"/>
<path d="M16.18 22L10 28.52L16.63 51.59L13.21 28.2L16.18 22Z" fill="white"/>
</svg>
